<mxfile host="Electron" modified="2024-03-25T00:48:28.378Z" agent="Mozilla/5.0 (X11; Linux x86_64) AppleWebKit/537.36 (KHTML, like Gecko) draw.io/24.1.0 Chrome/120.0.6099.109 Electron/28.1.0 Safari/537.36" etag="l7SQflTpCfIJPrOxVUar" version="24.1.0" type="device">
  <diagram name="PÃ¡gina-1" id="E-DP9fMv0TR5NF7smadX">
    <mxGraphModel dx="1364" dy="843" grid="1" gridSize="10" guides="1" tooltips="1" connect="1" arrows="1" fold="1" page="1" pageScale="1" pageWidth="800" pageHeight="400" math="1" shadow="0">
      <root>
        <mxCell id="0" />
        <mxCell id="1" parent="0" />
        <mxCell id="H2ho6_qdtDvlxnpRmL9c-1" value="" style="endArrow=classic;html=1;rounded=0;strokeWidth=3;" parent="1" edge="1">
          <mxGeometry width="50" height="50" relative="1" as="geometry">
            <mxPoint x="20" y="190" as="sourcePoint" />
            <mxPoint x="780" y="240" as="targetPoint" />
          </mxGeometry>
        </mxCell>
        <mxCell id="H2ho6_qdtDvlxnpRmL9c-2" value="" style="ellipse;whiteSpace=wrap;html=1;aspect=fixed;fillColor=#000000;" parent="1" vertex="1">
          <mxGeometry x="45" y="180" width="10" height="10" as="geometry" />
        </mxCell>
        <mxCell id="H2ho6_qdtDvlxnpRmL9c-5" value="" style="ellipse;whiteSpace=wrap;html=1;aspect=fixed;fillColor=#000000;" parent="1" vertex="1">
          <mxGeometry x="135" y="186" width="10" height="10" as="geometry" />
        </mxCell>
        <mxCell id="H2ho6_qdtDvlxnpRmL9c-6" value="" style="ellipse;whiteSpace=wrap;html=1;aspect=fixed;fillColor=#000000;" parent="1" vertex="1">
          <mxGeometry x="185" y="189" width="10" height="10" as="geometry" />
        </mxCell>
        <mxCell id="H2ho6_qdtDvlxnpRmL9c-7" value="" style="ellipse;whiteSpace=wrap;html=1;aspect=fixed;fillColor=#000000;" parent="1" vertex="1">
          <mxGeometry x="185" y="178" width="10" height="10" as="geometry" />
        </mxCell>
        <mxCell id="H2ho6_qdtDvlxnpRmL9c-11" value="" style="ellipse;whiteSpace=wrap;html=1;aspect=fixed;fillColor=#000000;" parent="1" vertex="1">
          <mxGeometry x="125" y="185" width="10" height="10" as="geometry" />
        </mxCell>
        <mxCell id="qeR7PX2OtEkkMIq0IRz6-37" value="" style="ellipse;whiteSpace=wrap;html=1;aspect=fixed;fillColor=#000000;" parent="1" vertex="1">
          <mxGeometry x="215" y="191" width="10" height="10" as="geometry" />
        </mxCell>
        <mxCell id="qeR7PX2OtEkkMIq0IRz6-38" value="" style="ellipse;whiteSpace=wrap;html=1;aspect=fixed;fillColor=#000000;" parent="1" vertex="1">
          <mxGeometry x="235" y="193" width="10" height="10" as="geometry" />
        </mxCell>
        <mxCell id="qeR7PX2OtEkkMIq0IRz6-39" value="" style="ellipse;whiteSpace=wrap;html=1;aspect=fixed;fillColor=#000000;" parent="1" vertex="1">
          <mxGeometry x="265" y="195" width="10" height="10" as="geometry" />
        </mxCell>
        <mxCell id="qeR7PX2OtEkkMIq0IRz6-40" value="" style="ellipse;whiteSpace=wrap;html=1;aspect=fixed;fillColor=#000000;" parent="1" vertex="1">
          <mxGeometry x="295" y="197" width="10" height="10" as="geometry" />
        </mxCell>
        <mxCell id="qeR7PX2OtEkkMIq0IRz6-41" value="" style="ellipse;whiteSpace=wrap;html=1;aspect=fixed;fillColor=#000000;" parent="1" vertex="1">
          <mxGeometry x="345" y="200" width="10" height="10" as="geometry" />
        </mxCell>
        <mxCell id="qeR7PX2OtEkkMIq0IRz6-42" value="" style="ellipse;whiteSpace=wrap;html=1;aspect=fixed;fillColor=#000000;" parent="1" vertex="1">
          <mxGeometry x="385" y="203" width="10" height="10" as="geometry" />
        </mxCell>
        <mxCell id="qeR7PX2OtEkkMIq0IRz6-43" value="" style="ellipse;whiteSpace=wrap;html=1;aspect=fixed;fillColor=#000000;" parent="1" vertex="1">
          <mxGeometry x="435" y="206" width="10" height="10" as="geometry" />
        </mxCell>
        <mxCell id="qeR7PX2OtEkkMIq0IRz6-44" value="" style="ellipse;whiteSpace=wrap;html=1;aspect=fixed;fillColor=#000000;" parent="1" vertex="1">
          <mxGeometry x="525" y="212" width="10" height="10" as="geometry" />
        </mxCell>
        <mxCell id="qeR7PX2OtEkkMIq0IRz6-46" value="" style="ellipse;whiteSpace=wrap;html=1;aspect=fixed;fillColor=#000000;" parent="1" vertex="1">
          <mxGeometry x="615" y="218" width="10" height="10" as="geometry" />
        </mxCell>
        <mxCell id="qeR7PX2OtEkkMIq0IRz6-47" value="" style="ellipse;whiteSpace=wrap;html=1;aspect=fixed;fillColor=#000000;" parent="1" vertex="1">
          <mxGeometry x="695" y="223" width="10" height="10" as="geometry" />
        </mxCell>
        <mxCell id="QyBpUTHthjD-6dGujXC1-11" value="" style="ellipse;whiteSpace=wrap;html=1;aspect=fixed;fillColor=#000000;" parent="1" vertex="1">
          <mxGeometry x="75" y="182" width="10" height="10" as="geometry" />
        </mxCell>
        <mxCell id="QyBpUTHthjD-6dGujXC1-12" value="" style="ellipse;whiteSpace=wrap;html=1;aspect=fixed;fillColor=#000000;" parent="1" vertex="1">
          <mxGeometry x="75" y="172" width="10" height="10" as="geometry" />
        </mxCell>
        <mxCell id="QyBpUTHthjD-6dGujXC1-13" value="" style="ellipse;whiteSpace=wrap;html=1;aspect=fixed;fillColor=#000000;" parent="1" vertex="1">
          <mxGeometry x="75" y="162" width="10" height="10" as="geometry" />
        </mxCell>
        <mxCell id="QyBpUTHthjD-6dGujXC1-14" value="" style="ellipse;whiteSpace=wrap;html=1;aspect=fixed;fillColor=#000000;" parent="1" vertex="1">
          <mxGeometry x="85" y="183" width="10" height="10" as="geometry" />
        </mxCell>
        <mxCell id="QyBpUTHthjD-6dGujXC1-15" value="" style="ellipse;whiteSpace=wrap;html=1;aspect=fixed;fillColor=#000000;" parent="1" vertex="1">
          <mxGeometry x="85" y="173" width="10" height="10" as="geometry" />
        </mxCell>
        <mxCell id="QyBpUTHthjD-6dGujXC1-16" value="" style="ellipse;whiteSpace=wrap;html=1;aspect=fixed;fillColor=#000000;" parent="1" vertex="1">
          <mxGeometry x="95" y="184" width="10" height="10" as="geometry" />
        </mxCell>
        <mxCell id="QyBpUTHthjD-6dGujXC1-17" value="" style="ellipse;whiteSpace=wrap;html=1;aspect=fixed;fillColor=#000000;" parent="1" vertex="1">
          <mxGeometry x="135" y="176" width="10" height="10" as="geometry" />
        </mxCell>
        <mxCell id="QyBpUTHthjD-6dGujXC1-81" value="" style="shape=flexArrow;endArrow=classic;html=1;rounded=0;width=5.833333333333334;endSize=4.275;endWidth=14.305555555555554;labelBackgroundColor=none;fillColor=#FF0000;" parent="1" edge="1">
          <mxGeometry width="50" height="50" relative="1" as="geometry">
            <mxPoint x="150" y="260" as="sourcePoint" />
            <mxPoint x="150" y="200" as="targetPoint" />
          </mxGeometry>
        </mxCell>
      </root>
    </mxGraphModel>
  </diagram>
</mxfile>
